<?xml version="1.0" standalone="no"?>
<!DOCTYPE svg PUBLIC "-//W3C//DTD SVG 20010904//EN"
 "http://www.w3.org/TR/2001/REC-SVG-20010904/DTD/svg10.dtd">
<svg version="1.0" xmlns="http://www.w3.org/2000/svg"
 width="180.000000pt" height="178.000000pt" viewBox="0 0 180.000000 178.000000"
 preserveAspectRatio="xMidYMid meet">
<metadata>
Created by potrace 1.16, written by Peter Selinger 2001-2019
</metadata>
<g transform="translate(0.000000,178.000000) scale(0.100000,-0.100000)"
fill="#000000" stroke="none">
<path d="M7 1773 c-4 -3 -7 -404 -7 -890 l0 -883 900 0 900 0 0 890 0 890
-893 0 c-492 0 -897 -3 -900 -7z m1683 -708 l0 -595 -787 2 -788 3 -2 593 -2
592 789 0 790 0 0 -595z m-1375 -740 c14 -13 25 -28 25 -33 0 -18 -37 -19 -59
-1 -12 10 -29 15 -36 12 -27 -10 -15 -30 25 -42 51 -15 70 -35 70 -75 0 -44
-30 -71 -81 -71 -42 0 -75 25 -81 60 -4 28 30 32 48 6 17 -24 46 -27 63 -7 14
17 1 29 -52 45 -61 20 -76 74 -31 110 36 28 79 27 109 -4z m663 -2 c3 -22 0
-23 -52 -23 -49 0 -56 -2 -56 -20 0 -17 7 -20 50 -20 43 0 50 -3 50 -19 0 -17
-8 -20 -47 -23 -44 -3 -48 -5 -51 -30 -3 -28 -3 -28 57 -28 54 0 61 -2 61 -20
0 -18 -7 -20 -80 -20 l-80 0 0 115 0 116 73 -3 c66 -3 72 -5 75 -25z m640 0
c3 -20 -1 -23 -27 -23 l-31 0 0 -90 c0 -89 0 -90 -25 -90 -25 0 -25 1 -25 90
l0 90 -30 0 c-22 0 -30 5 -30 18 0 30 10 33 90 30 69 -3 75 -5 78 -25z"/>
<path d="M853 1626 c-12 -13 -27 -34 -33 -46 -6 -12 -17 -19 -25 -16 -18 6
-27 -5 -15 -19 13 -15 -20 -84 -37 -78 -7 3 -13 0 -13 -5 0 -6 6 -13 13 -16 9
-3 7 -9 -6 -19 -10 -8 -14 -18 -9 -21 6 -3 4 -21 -4 -43 -7 -21 -13 -46 -14
-55 0 -9 -10 -20 -21 -23 -14 -5 -18 -10 -10 -14 9 -6 9 -21 0 -62 -18 -86
-26 -77 -26 28 0 54 -3 98 -8 98 -5 0 -8 -43 -8 -96 l0 -96 -62 0 -62 0 0 96
c0 55 -3 94 -9 91 -5 -3 -8 -47 -7 -98 l1 -93 -26 3 c-26 3 -26 3 -25 -68 l2
-71 -38 0 -37 0 -1 64 c-1 59 0 63 20 61 12 -2 23 2 24 7 2 6 -18 9 -48 7 -46
-2 -50 -1 -47 20 2 13 -1 24 -7 25 -6 2 -9 -17 -8 -46 l3 -48 -41 0 c-37 0
-40 1 -37 26 3 23 0 26 -25 23 -24 -3 -28 0 -25 20 2 13 -1 24 -7 25 -6 2 -9
-18 -7 -48 2 -47 1 -51 -18 -46 -11 3 -20 1 -20 -4 0 -5 8 -9 19 -9 15 0 18
-8 18 -41 0 -35 -2 -40 -18 -36 -12 3 -19 0 -19 -8 0 -8 8 -11 21 -8 17 5 20
2 17 -13 -2 -11 -11 -18 -21 -18 -9 1 -17 -4 -17 -11 0 -8 8 -11 19 -8 16 4
18 -1 18 -37 0 -36 -2 -41 -18 -37 -18 5 -19 -5 -19 -189 l0 -194 775 0 775 0
0 34 c0 29 -3 33 -20 29 -14 -4 -20 0 -20 12 0 12 6 16 20 12 17 -4 20 0 20
33 0 33 -3 37 -20 33 -13 -4 -20 0 -20 9 0 22 12 29 27 17 10 -9 13 -7 13 9 0
15 -5 19 -20 15 -14 -4 -20 0 -20 12 0 12 6 16 20 12 12 -3 20 0 20 8 0 7 -8
12 -17 11 -10 0 -18 6 -18 14 0 8 8 14 18 14 9 -1 17 4 17 11 0 8 -8 11 -21 8
-17 -5 -20 -2 -17 13 2 11 11 18 21 16 9 -2 17 2 17 8 0 5 -9 10 -20 10 -12 0
-20 7 -20 16 0 11 6 15 20 11 20 -5 20 0 20 399 l0 404 -382 -1 c-239 0 -375
-4 -360 -9 12 -5 22 -16 22 -24 0 -8 6 -19 13 -23 21 -13 49 -64 43 -79 -3 -8
1 -14 9 -14 15 0 40 -64 31 -79 -4 -5 -2 -13 4 -16 6 -4 8 -15 5 -25 -3 -11 0
-20 10 -24 18 -7 20 -28 2 -24 -7 2 -12 -1 -12 -7 0 -5 5 -10 12 -10 21 0 26
-14 29 -95 4 -79 3 -81 -19 -78 -12 2 -22 -1 -22 -7 0 -5 10 -9 21 -7 18 2 21
-3 21 -37 l0 -39 -62 0 -62 0 0 39 c0 34 3 39 21 37 11 -2 21 2 21 7 0 6 -10
9 -23 7 -19 -2 -23 1 -21 20 2 13 -1 23 -6 23 -6 0 -9 -10 -7 -23 2 -20 -1
-22 -25 -20 -26 3 -27 2 -26 -44 2 -35 -2 -48 -12 -48 -18 0 -28 17 -15 25 8
5 7 11 -1 21 -8 10 -8 18 0 27 8 10 7 17 -1 25 -8 8 -8 15 0 25 7 8 9 17 5 20
-10 11 -12 67 -2 73 5 3 6 11 2 17 -11 17 -12 110 -1 124 5 6 5 14 0 17 -5 3
-8 55 -8 116 1 60 -2 110 -5 110 -3 0 -15 -11 -26 -24z"/>
</g>
</svg>
